<?xml version="1.0" encoding="UTF-8"?>
<!-- Generator: visioncortex VTracer 0.6.3 -->
<svg version="1.1" xmlns="http://www.w3.org/2000/svg" width="1280" height="1280">
<path d="M0 0 C0.78 0.55 1.56 1.11 2.37 1.68 C11.51 8.14 20.46 14.74 29 22 C30.09 22.92 31.18 23.83 32.27 24.75 C38.24 29.77 44.16 34.83 50 40 C50.68 40.6 51.36 41.19 52.06 41.8 C59.08 48.02 65.72 54.57 72.33 61.2 C74.19 63.07 76.06 64.93 77.92 66.78 C83.82 72.68 89.64 78.59 95 85 C95.9 86.04 96.8 87.09 97.7 88.13 C159.47 160.7 201.76 249.03 223.09 475.69 C215.85 561.66 187.04 646.35 130 732 C129.52 732.67 129.03 733.35 128.54 734.04 C125.4 738.4 122.22 742.71 119 747 C118.59 747.55 118.17 748.11 117.75 748.68 C111.19 757.44 104.19 765.76 97 774 C96.34 774.76 95.68 775.52 95 776.31 C93.34 778.21 91.67 780.11 90 782 C89.41 782.68 88.81 783.36 88.2 784.05 C81.99 791.07 75.44 797.72 68.8 804.33 C66.93 806.19 65.07 808.06 63.22 809.92 C57.32 815.82 51.41 821.64 45 827 C43.96 827.9 42.91 828.8 41.87 829.7 C-30.7 891.47 -119.03 933.76 -345.69 955.09 C-431.61 947.85 -516.28 919.08 -602 862 C-602.78 861.45 -603.56 860.89 -604.37 860.32 C-613.51 853.86 -622.46 847.26 -631 840 C-632.09 839.08 -633.18 838.17 -634.27 837.25 C-640.24 832.23 -646.16 827.17 -652 822 C-653.02 821.11 -653.02 821.11 -654.06 820.2 C-661.08 813.98 -667.72 807.43 -674.33 800.8 C-676.19 798.93 -678.06 797.07 -679.92 795.22 C-685.82 789.32 -691.64 783.41 -697 777 C-697.9 775.96 -698.8 774.91 -699.7 773.87 C-722.09 747.57 -742.31 719.25 -759 689 C-759.54 688.03 -760.08 687.07 -760.63 686.07 C-789.22 634.64 -809.04 579 -819 521 C-819.18 519.98 -819.36 518.95 -819.55 517.9 C-820.87 510.29 -822 502.66 -823 495 C-823.15 493.85 -823.3 492.7 -823.46 491.51 C-836.31 389.23 -815.59 283.78 -756.5 168.58 C-755.12 166.21 -753.76 163.83 -752.41 161.45 C-743.12 145.19 -732.23 129.97 -721 115 C-720.38 114.17 -720.38 114.17 -719.75 113.32 C-713.19 104.56 -706.19 96.24 -699 88 C-698.34 87.24 -697.68 86.48 -697 85.69 C-695.34 83.79 -693.67 81.89 -692 80 C-691.11 78.98 -691.11 78.98 -690.2 77.95 C-683.99 70.93 -677.44 64.28 -670.8 57.67 C-668.93 55.81 -667.07 53.94 -665.22 52.08 C-659.32 46.18 -653.41 40.36 -647 35 C-645.96 34.1 -644.91 33.2 -643.87 32.3 C-571.3 -29.47 -482.97 -71.76 0 0 Z M-618 153 C-618 163.23 -618 173.46 -618 184 C-610.88 185.05 -610.88 185.05 -603.62 186.12 C-577.75 190.2 -555.95 197.41 -539.72 219.09 C-527.48 236.17 -524.31 255.01 -523.45 275.61 C-523.4 276.61 -523.36 277.6 -523.32 278.63 C-522.88 289.81 -522.86 300.99 -522.87 312.18 C-522.87 314.5 -522.87 316.82 -522.87 319.14 C-522.86 325.38 -522.86 331.61 -522.87 337.84 C-522.87 343.76 -522.87 349.67 -522.86 355.58 C-522.86 368.02 -522.87 380.46 -522.87 392.9 C-522.88 403.48 -522.87 414.07 -522.87 424.66 C-522.86 437.04 -522.86 449.42 -522.87 461.81 C-522.87 468.33 -522.87 474.85 -522.86 481.37 C-522.83 551.5 -522.83 551.5 -525.19 584.94 C-525.25 585.81 -525.31 586.69 -525.37 587.59 C-526.49 603.69 -528.13 619.72 -529.94 635.75 C-530.06 636.85 -530.18 637.95 -530.3 639.09 C-535.07 681.9 -535.07 681.9 -551.53 695.29 C-566.66 705.76 -585.08 708.95 -603.06 710.62 C-606.77 710.56 -606.77 710.56 -608 712 C-608 721.9 -608 731.8 -608 742 C-535.4 742 -462.8 742 -388 742 C-388 731.77 -388 721.54 -388 711 C-391.77 710.73 -395.55 710.46 -399.44 710.19 C-421.36 708.47 -444.79 705.99 -460.81 689.25 C-472.05 675.4 -473.51 655.81 -474.9 638.69 C-475.12 636.02 -475.36 633.35 -475.6 630.68 C-478.96 592.3 -479.33 553.91 -479.4 515.41 C-479.41 507.95 -479.44 500.5 -479.46 493.05 C-479.51 479.76 -479.55 466.48 -479.58 453.2 C-479.61 440.33 -479.64 427.46 -479.68 414.59 C-479.69 413.39 -479.69 413.39 -479.69 412.17 C-479.7 408.16 -479.71 404.15 -479.73 400.14 C-479.83 367.09 -479.92 334.05 -480 301 C-478.88 301.94 -477.76 302.89 -476.65 303.84 C-476.02 304.36 -475.4 304.89 -474.76 305.43 C-472.44 307.49 -470.54 309.76 -468.62 312.19 C-467.86 313.14 -467.1 314.1 -466.31 315.09 C-465.17 316.53 -465.17 316.53 -464 318 C-458.59 324.7 -453.06 331.28 -447.44 337.81 C-443.65 342.22 -439.95 346.7 -436.28 351.22 C-433.72 354.34 -431.11 357.42 -428.5 360.5 C-425.15 364.45 -421.83 368.42 -418.56 372.44 C-415.11 376.68 -411.57 380.85 -408 385 C-403.68 390.01 -399.45 395.09 -395.28 400.22 C-392.72 403.34 -390.11 406.42 -387.5 409.5 C-383.38 414.35 -379.33 419.25 -375.31 424.19 C-372.74 427.32 -370.12 430.41 -367.5 433.5 C-363.38 438.35 -359.33 443.25 -355.31 448.19 C-352.28 451.88 -349.18 455.52 -346.08 459.17 C-343.2 462.56 -340.37 465.98 -337.56 469.44 C-334.11 473.68 -330.57 477.85 -327 482 C-322.68 487.01 -318.45 492.09 -314.28 497.22 C-311.72 500.34 -309.11 503.42 -306.5 506.5 C-302.38 511.35 -298.33 516.25 -294.31 521.19 C-291.74 524.32 -289.12 527.41 -286.5 530.5 C-282.38 535.35 -278.33 540.25 -274.31 545.19 C-271.28 548.88 -268.18 552.52 -265.08 556.17 C-262.2 559.56 -259.37 562.98 -256.56 566.44 C-253.11 570.68 -249.57 574.85 -246 579 C-241.68 584.01 -237.45 589.09 -233.28 594.22 C-230.72 597.34 -228.11 600.42 -225.5 603.5 C-222.13 607.47 -218.79 611.46 -215.5 615.5 C-209.95 622.31 -204.26 628.99 -198.57 635.68 C-189.42 646.43 -189.42 646.43 -185.06 651.94 C-181.33 656.65 -177.42 661.2 -173.49 665.76 C-169.68 670.19 -165.96 674.68 -162.28 679.22 C-159.72 682.34 -157.11 685.42 -154.5 688.5 C-150.38 693.35 -146.33 698.25 -142.31 703.19 C-139.28 706.88 -136.18 710.52 -133.08 714.17 C-130.2 717.56 -127.37 720.98 -124.56 724.44 C-120.61 729.3 -116.54 734.06 -112.42 738.79 C-111.95 739.34 -111.48 739.88 -110.99 740.45 C-110.52 740.97 -110.04 741.49 -109.55 742.03 C-108 744 -108 744 -106.97 746.3 C-105.31 749.47 -104 750.99 -101 753 C-93.71 754.59 -85.96 753.84 -78.56 753.56 C-76.47 753.52 -74.39 753.48 -72.3 753.44 C-67.2 753.34 -62.1 753.19 -57 753 C-57 752.15 -57 751.3 -57 750.42 C-56.91 699.75 -56.82 649.07 -56.72 598.4 C-56.71 592.29 -56.69 586.19 -56.68 580.08 C-56.68 578.87 -56.68 577.65 -56.68 576.4 C-56.64 556.81 -56.6 537.21 -56.57 517.62 C-56.54 497.47 -56.5 477.32 -56.46 457.16 C-56.43 444.76 -56.41 432.36 -56.39 419.96 C-56.38 411.41 -56.36 402.87 -56.34 394.32 C-56.33 389.42 -56.32 384.52 -56.32 379.61 C-56.3 346.23 -55.45 312.85 -52.06 279.62 C-51.89 277.83 -51.71 276.04 -51.54 274.25 C-51.19 270.76 -50.84 267.27 -50.48 263.78 C-50.18 260.76 -49.88 257.74 -49.59 254.72 C-45.58 212.57 -45.58 212.57 -31.55 199.88 C-15.15 187.84 4.34 186.03 24 184 C24 173.77 24 163.54 24 153 C-49.59 153 -123.18 153 -199 153 C-199 162.9 -199 172.8 -199 183 C-197.31 184.69 -195.06 184.39 -192.73 184.61 C-191.63 184.72 -190.52 184.84 -189.38 184.95 C-188.18 185.07 -186.98 185.19 -185.75 185.31 C-135.94 190.64 -135.94 190.64 -121 208 C-107.89 225.23 -107.39 246.84 -105.44 267.62 C-105.33 268.75 -105.22 269.88 -105.11 271.05 C-101.13 312.69 -99.86 354.11 -99.7 395.92 C-99.67 401.39 -99.65 406.87 -99.62 412.34 C-99.57 422.65 -99.53 432.96 -99.48 443.27 C-99.43 455.04 -99.38 466.8 -99.32 478.56 C-99.21 502.7 -99.1 526.85 -99 551 C-104.25 549.43 -106.67 547.71 -110.31 543.56 C-110.79 543.03 -111.26 542.49 -111.75 541.94 C-115.52 537.66 -119.11 533.23 -122.69 528.78 C-125.2 525.76 -127.82 522.88 -130.5 520 C-134.77 515.41 -138.76 510.67 -142.69 505.78 C-145.64 502.23 -148.77 498.86 -151.92 495.48 C-154.89 492.27 -157.7 488.97 -160.44 485.56 C-163.8 481.38 -167.33 477.42 -171 473.5 C-175.46 468.74 -179.64 463.84 -183.72 458.75 C-186.22 455.74 -188.84 452.86 -191.5 450 C-195.77 445.41 -199.76 440.67 -203.69 435.78 C-206.64 432.23 -209.77 428.86 -212.92 425.48 C-215.89 422.27 -218.7 418.97 -221.44 415.56 C-224.8 411.38 -228.33 407.42 -232 403.5 C-236.46 398.74 -240.64 393.84 -244.72 388.75 C-247.22 385.74 -249.84 382.86 -252.5 380 C-255.95 376.29 -259.27 372.51 -262.44 368.56 C-265.8 364.38 -269.33 360.42 -273 356.5 C-277.46 351.74 -281.64 346.84 -285.72 341.75 C-288.22 338.74 -290.84 335.86 -293.5 333 C-297.77 328.41 -301.76 323.67 -305.69 318.78 C-308.64 315.23 -311.77 311.86 -314.92 308.48 C-317.89 305.27 -320.7 301.97 -323.44 298.56 C-326.8 294.38 -330.33 290.42 -334 286.5 C-338.46 281.74 -342.64 276.84 -346.72 271.75 C-349.22 268.74 -351.84 265.86 -354.5 263 C-357.95 259.29 -361.27 255.51 -364.44 251.56 C-367.8 247.38 -371.33 243.42 -375 239.5 C-379.46 234.74 -383.64 229.84 -387.72 224.75 C-390.22 221.74 -392.84 218.86 -395.5 216 C-398.95 212.29 -402.27 208.51 -405.44 204.56 C-408.8 200.38 -412.33 196.42 -416 192.5 C-420.46 187.74 -424.64 182.84 -428.72 177.75 C-432.46 173.24 -436.47 168.98 -440.53 164.76 C-442 163 -442 163 -443.46 160.54 C-446.22 156.2 -448.32 153.45 -453.41 152.09 C-457.75 151.77 -461.99 151.76 -466.33 151.86 C-467.99 151.87 -469.64 151.87 -471.3 151.86 C-475.78 151.86 -480.26 151.92 -484.74 151.99 C-489.42 152.05 -494.11 152.05 -498.8 152.07 C-507.67 152.1 -516.53 152.18 -525.4 152.28 C-535.5 152.39 -545.6 152.45 -555.7 152.5 C-576.47 152.6 -597.23 152.78 -618 153 Z " fill="#000000" transform="translate(941,209)"/>
<path d="M0 0 C1.5 0 3.01 0 4.51 0.01 C27.65 0.05 50.63 0.5 73.62 3.31 C74.44 3.41 75.26 3.51 76.1 3.61 C100.21 6.59 123.97 10.82 147.62 16.31 C148.55 16.52 149.47 16.73 150.42 16.95 C197.9 27.78 244.16 45.14 287.5 67.24 C289.82 68.41 292.14 69.55 294.46 70.68 C304.74 75.72 314.71 81.07 324.49 87.02 C326.71 88.36 328.93 89.7 331.16 91.04 C357.72 107.05 382.91 125.14 406.85 144.86 C408.43 146.15 410.02 147.43 411.62 148.71 C418.3 154.07 424.57 159.79 430.82 165.65 C432.11 166.84 433.42 168.01 434.74 169.18 C441.89 175.5 448.65 182.18 455.39 188.94 C457.32 190.88 459.25 192.81 461.19 194.74 C467.21 200.76 473.13 206.8 478.62 213.31 C480.08 214.92 481.54 216.52 483 218.12 C486.84 222.39 490.52 226.76 494.12 231.22 C495.95 233.47 497.78 235.71 499.62 237.93 C512.63 253.67 524.25 270.37 535.62 287.31 C536.09 288 536.55 288.68 537.02 289.38 C549.45 307.89 560.43 327.4 570.57 347.25 C571.54 349.15 572.53 351.05 573.52 352.95 C606.51 416.82 627.07 486.84 636.38 558 C636.53 559.13 636.53 559.13 636.68 560.29 C640.17 586.68 641.01 613.11 640.94 639.69 C640.94 641.19 640.93 642.69 640.93 644.2 C640.89 667.33 640.43 690.32 637.62 713.31 C637.53 714.13 637.43 714.95 637.32 715.79 C634.35 739.9 630.13 763.66 624.62 787.31 C624.26 788.9 624.26 788.9 623.89 790.52 C602.79 882.14 559.16 970.46 491.03 1052.67 C489.61 1054.33 488.2 1056 486.79 1057.68 C474.78 1071.91 461.84 1085.19 448.69 1098.38 C448.1 1098.96 447.52 1099.55 446.91 1100.16 C440.66 1106.43 434.38 1112.58 427.62 1118.31 C426.02 1119.77 424.41 1121.22 422.81 1122.69 C418.55 1126.53 414.18 1130.21 409.71 1133.81 C407.47 1135.63 405.23 1137.46 403 1139.31 C387.27 1152.32 370.56 1163.94 353.62 1175.31 C352.94 1175.77 352.26 1176.23 351.55 1176.71 C332.4 1189.57 312.18 1200.85 291.62 1211.31 C290.94 1211.66 290.25 1212.01 289.54 1212.38 C284.92 1214.73 280.28 1217.03 275.62 1219.31 C274.68 1219.78 274.68 1219.78 273.72 1220.26 C242.16 1235.79 208.5 1247.96 174.62 1257.31 C173.65 1257.58 172.67 1257.86 171.66 1258.14 C115.84 1273.46 59.08 1280.78 1.25 1280.62 C-0.25 1280.62 -1.76 1280.62 -3.26 1280.62 C-26.4 1280.57 -49.38 1280.12 -72.38 1277.31 C-73.19 1277.21 -74.01 1277.11 -74.85 1277.01 C-98.96 1274.03 -122.72 1269.82 -146.38 1264.31 C-147.35 1264.09 -148.33 1263.86 -149.33 1263.63 C-198.34 1252.2 -245.67 1234.34 -290.38 1211.31 C-291.24 1210.87 -292.11 1210.42 -293.01 1209.97 C-305.71 1203.47 -318.22 1196.78 -330.38 1189.31 C-331.11 1188.86 -331.84 1188.42 -332.59 1187.96 C-358.09 1172.25 -382.6 1155.09 -405.55 1135.83 C-408.05 1133.75 -410.59 1131.72 -413.12 1129.69 C-418.83 1125.03 -424.19 1120.01 -429.57 1114.98 C-430.86 1113.79 -432.17 1112.61 -433.49 1111.45 C-440.64 1105.12 -447.4 1098.44 -454.14 1091.68 C-456.07 1089.75 -458 1087.82 -459.94 1085.88 C-465.96 1079.86 -471.88 1073.83 -477.38 1067.31 C-478.83 1065.7 -480.29 1064.1 -481.75 1062.5 C-485.59 1058.24 -489.27 1053.87 -492.88 1049.4 C-494.7 1047.15 -496.53 1044.92 -498.38 1042.69 C-511.38 1026.96 -523 1010.25 -534.38 993.31 C-535.07 992.29 -535.07 992.29 -535.77 991.24 C-548.63 972.09 -559.92 951.86 -570.38 931.31 C-570.73 930.63 -571.08 929.94 -571.44 929.23 C-573.79 924.61 -576.1 919.97 -578.38 915.31 C-578.69 914.68 -579 914.05 -579.32 913.4 C-608.66 853.82 -626.49 788.32 -635.12 722.62 C-635.23 721.87 -635.33 721.11 -635.43 720.34 C-638.92 693.95 -639.76 667.52 -639.69 640.94 C-639.69 639.43 -639.68 637.93 -639.68 636.43 C-639.64 613.29 -639.18 590.3 -636.38 567.31 C-636.28 566.5 -636.18 565.68 -636.07 564.84 C-633.1 540.73 -628.88 516.97 -623.38 493.31 C-623.01 491.73 -623.01 491.73 -622.64 490.11 C-601.54 398.49 -557.91 310.17 -489.78 227.96 C-488.36 226.29 -486.95 224.62 -485.54 222.95 C-473.53 208.71 -460.59 195.43 -447.44 182.25 C-446.85 181.66 -446.27 181.07 -445.66 180.47 C-439.41 174.19 -433.13 168.05 -426.38 162.31 C-424.77 160.86 -423.16 159.4 -421.56 157.94 C-417.3 154.09 -412.93 150.42 -408.46 146.81 C-406.22 144.99 -403.98 143.16 -401.75 141.31 C-386.02 128.3 -369.31 116.69 -352.38 105.31 C-351.69 104.85 -351.01 104.39 -350.3 103.92 C-331.15 91.05 -310.93 79.77 -290.38 69.31 C-289.69 68.96 -289 68.61 -288.29 68.25 C-283.67 65.89 -279.03 63.59 -274.38 61.31 C-273.75 61 -273.12 60.69 -272.47 60.37 C-240.91 44.83 -207.25 32.66 -173.38 23.31 C-172.4 23.04 -171.42 22.77 -170.41 22.49 C-114.59 7.16 -57.83 -0.15 0 0 Z M-326.47 197.9 C-328.42 199.35 -330.38 200.78 -332.34 202.21 C-341.77 209.14 -350.66 216.52 -359.38 224.31 C-360.33 225.16 -361.28 226.01 -362.25 226.89 C-363.82 228.29 -365.38 229.7 -366.93 231.12 C-368.26 232.31 -369.58 233.49 -370.94 234.64 C-377.48 240.2 -383.5 246.29 -389.56 252.36 C-391.43 254.25 -393.31 256.12 -395.2 258 C-401.14 263.93 -406.97 269.88 -412.38 276.31 C-413.35 277.43 -414.32 278.55 -415.3 279.66 C-442.03 310.53 -465 344.39 -484.38 380.31 C-484.84 381.17 -485.31 382.03 -485.78 382.91 C-510.5 428.59 -527.61 477.59 -538.38 528.31 C-538.69 529.81 -538.69 529.81 -539.02 531.33 C-540.33 537.63 -541.4 543.95 -542.38 550.31 C-542.52 551.27 -542.52 551.27 -542.67 552.24 C-555.49 636.29 -550.96 723.4 -444.73 963.55 C-433.43 978.9 -421.49 993.71 -408.64 1007.8 C-407.42 1009.15 -406.21 1010.5 -405.04 1011.89 C-399.48 1018.43 -393.4 1024.44 -387.32 1030.49 C-385.44 1032.37 -383.57 1034.25 -381.69 1036.13 C-375.75 1042.07 -369.81 1047.91 -363.38 1053.31 C-362.26 1054.28 -361.14 1055.26 -360.02 1056.23 C-340.59 1073.07 -319.95 1088.33 -298.38 1102.31 C-297.62 1102.8 -296.87 1103.3 -296.1 1103.8 C-284.42 1111.43 -272.43 1118.32 -260.11 1124.86 C-257.46 1126.26 -254.83 1127.69 -252.19 1129.12 C-208.17 1152.85 -160.19 1168.95 -111.38 1179.31 C-110.38 1179.52 -109.38 1179.74 -108.36 1179.96 C-102.06 1181.26 -95.73 1182.34 -89.38 1183.31 C-88.08 1183.51 -86.78 1183.72 -85.45 1183.93 C-5.96 1196.19 76.26 1191.75 296.62 1104.31 C297.31 1103.87 297.99 1103.43 298.69 1102.97 C303.05 1100.15 307.35 1097.25 311.62 1094.31 C312.28 1093.86 312.94 1093.41 313.62 1092.94 C332.83 1079.73 350.92 1065.24 368.15 1049.54 C369.48 1048.34 370.82 1047.14 372.2 1045.98 C378.74 1040.42 384.75 1034.34 390.81 1028.26 C392.68 1026.38 394.56 1024.5 396.45 1022.63 C402.39 1016.69 408.22 1010.74 413.62 1004.31 C414.57 1003.23 415.52 1002.15 416.48 1001.07 C423.74 992.74 430.49 984.09 437.14 975.27 C439.2 972.56 441.32 969.91 443.44 967.25 C491.52 904.61 523.29 829.24 539.62 752.31 C539.84 751.32 540.05 750.32 540.27 749.29 C541.58 742.99 542.65 736.67 543.62 730.31 C543.83 729.02 544.03 727.72 544.24 726.38 C556.5 646.9 552.06 564.68 445.98 317.07 C434.68 301.72 422.74 286.91 409.89 272.82 C408.67 271.48 407.46 270.12 406.29 268.74 C400.73 262.2 394.65 256.19 388.57 250.13 C386.69 248.25 384.82 246.37 382.94 244.49 C377 238.55 371.05 232.72 364.62 227.31 C363.54 226.36 362.46 225.41 361.38 224.46 C353.05 217.2 344.41 210.45 335.59 203.81 C333.84 202.48 332.11 201.13 330.39 199.76 C267.7 150.2 190.42 117.83 112.62 101.31 C111.13 100.99 111.13 100.99 109.61 100.67 C103.31 99.36 96.98 98.29 90.62 97.31 C89.33 97.11 88.03 96.91 86.7 96.7 C7.21 84.44 -75.01 88.87 -326.47 197.9 Z " fill="#000000" transform="translate(639.375,-0.3125)"/>
</svg>
